<svg width="123" height="24" viewBox="0 0 123 24" fill="none" xmlns="http://www.w3.org/2000/svg">
    <path d="M122.794 9.0295C122.794 9.68251 122.634 10.2802 122.313 10.8225C121.992 11.3593 121.56 11.7882 121.018 12.1092C120.481 12.4301 119.886 12.5906 119.233 12.5906H109.928V10.2165H119.233C119.56 10.2165 119.839 10.1003 120.072 9.8679C120.304 9.63547 120.42 9.35601 120.42 9.0295C120.42 8.703 120.304 8.42353 120.072 8.19111C119.839 7.95868 119.56 7.84246 119.233 7.84246H110.102V5.46839H119.233C119.56 5.46839 119.839 5.35218 120.072 5.11975C120.304 4.88732 120.42 4.60509 120.42 4.27305C120.42 3.94655 120.304 3.66708 120.072 3.43465C119.839 3.20223 119.56 3.08601 119.233 3.08601H109.928V0.711937H119.233C119.886 0.711937 120.481 0.872422 121.018 1.19339C121.56 1.51436 121.992 1.94601 122.313 2.48834C122.634 3.02514 122.794 3.62004 122.794 4.27305C122.794 4.73237 122.714 5.16402 122.553 5.568C122.393 5.97198 122.169 6.33446 121.881 6.65543C122.169 6.97086 122.393 7.33057 122.553 7.73455C122.714 8.13853 122.794 8.57018 122.794 9.0295Z" fill="white"/>
    <path d="M97.6631 8.63106V12.5906H95.2891V0.711937H103.698C104.428 0.711937 105.093 0.891791 105.69 1.2515C106.288 1.60567 106.764 2.08436 107.118 2.68757C107.478 3.28524 107.657 3.94655 107.657 4.6715C107.657 5.45179 107.453 6.15737 107.043 6.78824C106.639 7.41912 106.105 7.90057 105.441 8.23261L107.757 12.5491H105.059L102.959 8.63106H97.6631ZM97.6631 3.08601V6.25698H103.698C104.135 6.25698 104.509 6.10203 104.819 5.79213C105.128 5.48222 105.283 5.10868 105.283 4.6715C105.283 4.23431 105.128 3.86077 104.819 3.55087C104.509 3.24096 104.135 3.08601 103.698 3.08601H97.6631Z" fill="white"/>
    <path d="M82.0274 12.5906H80.8404H79.6533V0.711937H80.8404H82.0274H92.719V3.08601H82.0274V5.46839H90.345V7.84246H82.0274V10.2165H92.719V12.5906H82.0274Z" fill="white"/>
    <path d="M71.5656 12.5906H69.1915V7.95038L63.2979 0.711937H66.3609L70.4367 5.71742L74.5125 0.711937H77.5755L71.5656 8.09979V12.5906Z" fill="white"/>
    <path d="M54.108 10.615L53.0455 12.5906H50.3477L56.7394 0.711937H59.2297L65.6214 12.5906H62.9236L61.8611 10.615H54.108ZM57.9845 3.41805L55.3863 8.23261H60.5827L57.9845 3.41805Z" fill="white"/>
    <path d="M36.0205 0.711994H38.3946V10.2166H48.6878L47.3823 12.5907H36.0205V0.711994Z" fill="white"/>
    <path d="M92.7857 18.1133V23.0935H91.8762L89.7095 19.959H89.6731V23.0935H88.6201V18.1133H89.5442L91.6938 21.2454H91.7376V18.1133H92.7857Z" fill="white"/>
    <path d="M86.539 20.6034C86.539 21.1465 86.4361 21.6085 86.2302 21.9895C86.026 22.3705 85.7471 22.6615 85.3937 22.8625C85.0419 23.0619 84.6464 23.1616 84.207 23.1616C83.7645 23.1616 83.3673 23.0611 83.0155 22.86C82.6637 22.659 82.3857 22.368 82.1814 21.9871C81.9771 21.6061 81.875 21.1449 81.875 20.6034C81.875 20.0603 81.9771 19.5983 82.1814 19.2173C82.3857 18.8364 82.6637 18.5462 83.0155 18.3468C83.3673 18.1457 83.7645 18.0452 84.207 18.0452C84.6464 18.0452 85.0419 18.1457 85.3937 18.3468C85.7471 18.5462 86.026 18.8364 86.2302 19.2173C86.4361 19.5983 86.539 20.0603 86.539 20.6034ZM85.4715 20.6034C85.4715 20.2516 85.4188 19.9549 85.3135 19.7134C85.2097 19.4718 85.063 19.2887 84.8733 19.1638C84.6836 19.039 84.4615 18.9766 84.207 18.9766C83.9525 18.9766 83.7304 19.039 83.5407 19.1638C83.3511 19.2887 83.2035 19.4718 83.0982 19.7134C82.9944 19.9549 82.9425 20.2516 82.9425 20.6034C82.9425 20.9552 82.9944 21.2519 83.0982 21.4934C83.2035 21.735 83.3511 21.9182 83.5407 22.043C83.7304 22.1678 83.9525 22.2302 84.207 22.2302C84.4615 22.2302 84.6836 22.1678 84.8733 22.043C85.063 21.9182 85.2097 21.735 85.3135 21.4934C85.4188 21.2519 85.4715 20.9552 85.4715 20.6034Z" fill="white"/>
    <path d="M79.7951 18.1133V23.0935H78.7422V18.1133H79.7951Z" fill="white"/>
    <path d="M72.6777 18.9814V18.1133H76.7679V18.9814H75.2432V23.0935H74.2024V18.9814H72.6777Z" fill="white"/>
    <path d="M67.9105 23.0935H66.7822L68.5015 18.1133H69.8584L71.5752 23.0935H70.4468L69.1994 19.2514H69.1605L67.9105 23.0935ZM67.84 21.1359H70.5052V21.9579H67.84V21.1359Z" fill="white"/>
    <path d="M62.8152 23.0935H61.0498V18.1133H62.8298C63.3308 18.1133 63.762 18.213 64.1235 18.4124C64.485 18.6102 64.763 18.8947 64.9576 19.266C65.1537 19.6372 65.2518 20.0814 65.2518 20.5985C65.2518 21.1173 65.1537 21.5631 64.9576 21.936C64.763 22.3089 64.4834 22.595 64.1186 22.7944C63.7555 22.9938 63.321 23.0935 62.8152 23.0935ZM62.1027 22.1913H62.7715C63.0827 22.1913 63.3445 22.1362 63.5569 22.026C63.7709 21.9141 63.9314 21.7414 64.0384 21.508C64.147 21.2729 64.2013 20.9698 64.2013 20.5985C64.2013 20.2305 64.147 19.9298 64.0384 19.6964C63.9314 19.4629 63.7717 19.2911 63.5593 19.1808C63.347 19.0706 63.0852 19.0155 62.7739 19.0155H62.1027V22.1913Z" fill="white"/>
    <path d="M58.8794 18.1133V23.0935H57.9699L55.8033 19.959H55.7668V23.0935H54.7139V18.1133H55.6379L57.7876 21.2454H57.8313V18.1133H58.8794Z" fill="white"/>
    <path d="M51.4931 18.1133H52.5461V21.3475C52.5461 21.7106 52.4593 22.0284 52.2859 22.3007C52.114 22.5731 51.8733 22.7855 51.5636 22.9379C51.254 23.0886 50.8933 23.164 50.4815 23.164C50.0681 23.164 49.7066 23.0886 49.397 22.9379C49.0873 22.7855 48.8466 22.5731 48.6748 22.3007C48.5029 22.0284 48.417 21.7106 48.417 21.3475V18.1133H49.4699V21.2575C49.4699 21.4472 49.5113 21.6158 49.5939 21.7633C49.6782 21.9109 49.7966 22.0268 49.949 22.1111C50.1014 22.1954 50.2789 22.2375 50.4815 22.2375C50.6858 22.2375 50.8633 22.1954 51.0141 22.1111C51.1665 22.0268 51.284 21.9109 51.3667 21.7633C51.451 21.6158 51.4931 21.4472 51.4931 21.2575V18.1133Z" fill="white"/>
    <path d="M46.3359 20.6034C46.3359 21.1465 46.233 21.6085 46.0271 21.9895C45.8228 22.3705 45.544 22.6615 45.1906 22.8625C44.8388 23.0619 44.4432 23.1616 44.0039 23.1616C43.5613 23.1616 43.1641 23.0611 42.8124 22.86C42.4606 22.659 42.1825 22.368 41.9783 21.9871C41.774 21.6061 41.6719 21.1449 41.6719 20.6034C41.6719 20.0603 41.774 19.5983 41.9783 19.2173C42.1825 18.8364 42.4606 18.5462 42.8124 18.3468C43.1641 18.1457 43.5613 18.0452 44.0039 18.0452C44.4432 18.0452 44.8388 18.1457 45.1906 18.3468C45.544 18.5462 45.8228 18.8364 46.0271 19.2173C46.233 19.5983 46.3359 20.0603 46.3359 20.6034ZM45.2684 20.6034C45.2684 20.2516 45.2157 19.9549 45.1103 19.7134C45.0066 19.4718 44.8599 19.2887 44.6702 19.1638C44.4805 19.039 44.2584 18.9766 44.0039 18.9766C43.7494 18.9766 43.5273 19.039 43.3376 19.1638C43.1479 19.2887 43.0004 19.4718 42.895 19.7134C42.7913 19.9549 42.7394 20.2516 42.7394 20.6034C42.7394 20.9552 42.7913 21.2519 42.895 21.4934C43.0004 21.735 43.1479 21.9182 43.3376 22.043C43.5273 22.1678 43.7494 22.2302 44.0039 22.2302C44.2584 22.2302 44.4805 22.1678 44.6702 22.043C44.8599 21.9182 45.0066 21.735 45.1103 21.4934C45.2157 21.2519 45.2684 20.9552 45.2684 20.6034Z" fill="white"/>
    <path d="M36.4531 23.0935V18.1133H39.7505V18.9814H37.5061V20.1681H39.5317V21.0362H37.5061V23.0935H36.4531Z" fill="white"/>
    <path d="M0.711914 15.1933C0.711914 14.745 1.07532 14.3816 1.52361 14.3816H10.8581V23.716H1.52361C1.07532 23.716 0.711914 23.3526 0.711914 22.9043V15.1933Z" fill="white"/>
    <path d="M10.8584 14.3816H23.4396C23.8879 14.3816 24.2513 14.745 24.2513 15.1933V22.9043C24.2513 23.3526 23.8879 23.716 23.4396 23.716H20.3927C19.9467 23.716 19.5203 23.5325 19.2137 23.2086L10.8584 14.3816Z" fill="white"/>
    <path d="M0.711914 0.988629C0.711914 0.540344 1.07532 0.176937 1.52361 0.176937H10.0464C10.4947 0.176937 10.8581 0.540344 10.8581 0.98863V14.3816L1.1771 4.52457C0.87896 4.22101 0.711914 3.81253 0.711914 3.38705V0.988629Z" fill="white"/>
</svg>
